<svg width="3957" height="603" viewBox="0 0 3957 603" fill="none" xmlns="http://www.w3.org/2000/svg">
<path d="M378.013 356.846C378.013 327.218 361.935 299.925 336.024 285.567L246.474 235.946C220.563 221.589 204.485 194.295 204.485 164.667V0H0V102.551C0 132.709 16.6529 160.401 43.2882 174.535L130.239 220.674C156.874 234.808 173.527 262.5 173.527 292.658V603H378.013V356.846Z" fill="black"/>
<path d="M760.798 512.209C760.798 482.295 744.411 454.786 718.11 440.547L625.884 390.615C599.583 376.376 583.197 348.867 583.197 318.953V0H378.712V253.764C378.712 283.678 395.098 311.187 421.399 325.426L513.625 375.358C539.926 389.597 556.313 417.106 556.313 447.02V603H760.798V512.209Z" fill="black"/>
<path d="M3918.37 489.969C3897.96 489.969 3881.58 486.382 3869.26 479.206C3857.12 472.031 3848.38 462.28 3843.05 449.953C3837.9 437.626 3835.32 422.908 3835.32 405.797V239.385H3787.31V189.986H3835.32V113.542H3893.54V189.986H3957V239.385H3893.54V403.038C3893.54 414.629 3896.85 423.552 3903.47 429.807C3910.1 435.879 3920.3 438.914 3934.1 438.914C3940.54 438.914 3947.99 438.27 3956.45 436.982V484.174C3943.02 488.038 3930.33 489.969 3918.37 489.969Z" fill="black"/>
<path d="M3639.44 492.731C3612.21 492.731 3587.66 486.384 3565.77 473.689C3544.06 460.81 3527.05 442.688 3514.73 419.322C3502.4 395.772 3496.24 368.819 3496.24 338.462C3496.24 307.737 3502.31 280.692 3514.45 257.326C3526.59 233.96 3543.6 215.838 3565.49 202.959C3587.38 189.896 3612.12 183.365 3639.71 183.365C3667.49 183.365 3692.23 189.804 3713.93 202.683C3735.64 215.562 3752.47 233.684 3764.43 257.05C3776.38 280.416 3782.36 307.553 3782.36 338.462C3782.36 369.003 3776.29 395.956 3764.15 419.322C3752.01 442.688 3734.99 460.81 3713.11 473.689C3691.4 486.384 3666.84 492.731 3639.44 492.731ZM3639.44 443.884C3655.62 443.884 3670.06 439.744 3682.75 431.465C3695.63 423.002 3705.66 410.859 3712.83 395.037C3720 379.03 3723.59 360.172 3723.59 338.462C3723.59 316.384 3720 297.434 3712.83 281.611C3705.84 265.605 3695.91 253.37 3683.03 244.907C3670.34 236.444 3655.81 232.212 3639.44 232.212C3623.07 232.212 3608.44 236.444 3595.57 244.907C3582.88 253.37 3572.94 265.605 3565.77 281.611C3558.78 297.434 3555.28 316.384 3555.28 338.462C3555.28 360.172 3558.87 378.938 3566.04 394.761C3573.22 410.583 3583.15 422.726 3595.84 431.189C3608.72 439.652 3623.25 443.884 3639.44 443.884Z" fill="black"/>
<path d="M3349.44 492.73C3336.19 492.73 3323.41 490.799 3311.09 486.935C3298.76 483.071 3287.54 477.368 3277.42 469.825C3267.49 462.281 3259.03 452.99 3252.04 441.951H3251.49V486.107H3193.27V88.1534H3251.49V234.143H3252.04C3258.48 223.84 3266.57 214.917 3276.32 207.374C3286.07 199.647 3297.01 193.759 3309.15 189.712C3321.48 185.48 3334.72 183.364 3348.89 183.364C3373.53 183.364 3395.24 189.712 3414 202.406C3432.95 215.101 3447.57 233.223 3457.87 256.773C3468.36 280.139 3473.6 307.368 3473.6 338.461C3473.6 370.474 3468.26 398.072 3457.59 421.253C3446.93 444.435 3432.12 462.189 3413.17 474.516C3394.41 486.659 3373.17 492.73 3349.44 492.73ZM3332.33 441.399C3348.15 441.399 3362.31 437.26 3374.82 428.981C3387.33 420.701 3397.08 408.834 3404.07 393.38C3411.06 377.741 3414.55 359.343 3414.55 338.185C3414.55 317.027 3411.15 298.721 3404.34 283.267C3397.54 267.628 3387.88 255.669 3375.37 247.39C3362.87 239.111 3348.61 234.971 3332.61 234.971C3315.87 234.971 3301.34 239.295 3289.01 247.942C3276.87 256.589 3267.4 268.732 3260.59 284.371C3253.97 300.009 3250.66 318.039 3250.66 338.461C3250.66 359.251 3254.06 377.466 3260.87 393.104C3267.68 408.559 3277.15 420.517 3289.29 428.981C3301.61 437.26 3315.96 441.399 3332.33 441.399Z" fill="black"/>
<path d="M3015.89 492.731C2988.66 492.731 2964.11 486.384 2942.22 473.689C2920.51 460.81 2903.5 442.688 2891.17 419.322C2878.85 395.772 2872.69 368.819 2872.69 338.462C2872.69 307.737 2878.76 280.692 2890.9 257.326C2903.04 233.96 2920.05 215.838 2941.94 202.959C2963.83 189.896 2988.57 183.365 3016.16 183.365C3043.94 183.365 3068.68 189.804 3090.38 202.683C3112.09 215.562 3128.92 233.684 3140.87 257.05C3152.83 280.416 3158.81 307.553 3158.81 338.462C3158.81 369.003 3152.74 395.956 3140.6 419.322C3128.46 442.688 3111.44 460.81 3089.55 473.689C3067.85 486.384 3043.29 492.731 3015.89 492.731ZM3015.89 443.884C3032.07 443.884 3046.51 439.744 3059.2 431.465C3072.08 423.002 3082.1 410.859 3089.28 395.037C3096.45 379.03 3100.04 360.172 3100.04 338.462C3100.04 316.384 3096.45 297.434 3089.28 281.611C3082.29 265.605 3072.36 253.37 3059.48 244.907C3046.79 236.444 3032.26 232.212 3015.89 232.212C2999.52 232.212 2984.89 236.444 2972.02 244.907C2959.32 253.37 2949.39 265.605 2942.22 281.611C2935.23 297.434 2931.73 316.384 2931.73 338.462C2931.73 360.172 2935.32 378.938 2942.49 394.761C2949.67 410.583 2959.6 422.726 2972.29 431.189C2985.17 439.652 2999.7 443.884 3015.89 443.884Z" fill="black"/>
<path d="M2570.82 486.107V88.1534H2733.33C2758.72 88.1534 2780.51 92.661 2798.73 101.676C2816.94 110.691 2830.73 123.662 2840.11 140.588C2849.49 157.331 2854.18 176.741 2854.18 198.819C2854.18 215.009 2851.33 229.636 2845.63 242.699C2840.11 255.761 2832.11 266.524 2821.63 274.987C2811.14 283.451 2798.63 289.43 2784.1 292.926V294.03C2804.7 298.445 2820.15 308.656 2830.45 324.663C2840.94 340.485 2846.37 362.563 2846.73 390.896C2846.73 393.104 2846.73 395.22 2846.73 397.244C2846.92 399.083 2847.01 401.015 2847.01 403.039C2847.75 425.117 2849.03 442.135 2850.87 454.094C2852.71 466.053 2855.56 475.804 2859.43 483.347V486.107H2798.45C2795.32 478.38 2792.84 469.457 2791 459.338C2789.34 449.219 2788.06 435.88 2787.14 419.321C2786.95 415.826 2786.77 412.238 2786.59 408.559C2786.4 404.879 2786.22 401.015 2786.03 396.968C2785.85 378.753 2783.27 364.311 2778.31 353.64C2773.34 342.785 2765.71 334.966 2755.41 330.182C2745.29 325.215 2731.77 322.731 2714.85 322.731H2632.07V486.107H2570.82ZM2723.95 270.572C2738.48 270.572 2750.9 268.088 2761.2 263.121C2771.5 257.969 2779.41 250.426 2784.93 240.491C2790.45 230.372 2793.21 218.413 2793.21 204.614C2793.21 190.448 2790.36 178.489 2784.65 168.738C2778.95 158.987 2770.95 151.811 2760.65 147.212C2750.35 142.428 2738.12 140.036 2723.95 140.036H2632.07V270.572H2723.95Z" fill="black"/>
<path d="M2288.67 593.462V545.718H2309.92C2325.18 545.718 2337.23 542.867 2346.06 537.163C2354.89 531.644 2361.88 522.352 2367.03 509.29L2375.58 487.488L2263.01 189.989H2322.88L2384.69 369.095C2390.21 385.47 2396.18 403.684 2402.62 423.738H2404C2409.89 403.684 2415.59 385.47 2421.11 369.095L2481.81 189.989H2541.68L2417.52 523.916C2408.88 547.098 2396 564.484 2378.89 576.075C2361.97 587.666 2338.98 593.462 2309.92 593.462H2288.67Z" fill="black"/>
<path d="M2139.77 492.731C2126.52 492.731 2113.74 490.799 2101.42 486.936C2089.09 483.072 2077.87 477.369 2067.76 469.825C2057.82 462.282 2049.36 452.991 2042.37 441.952H2041.82V593.461H1983.6V189.988H2041.82V234.144H2042.37C2048.81 223.841 2056.9 214.918 2066.65 207.375C2076.4 199.647 2087.35 193.76 2099.49 189.712C2111.81 185.481 2125.05 183.365 2139.22 183.365C2163.86 183.365 2185.57 189.712 2204.33 202.407C2223.28 215.102 2237.9 233.224 2248.2 256.774C2258.69 280.14 2263.93 307.369 2263.93 338.462C2263.93 370.475 2258.59 398.072 2247.93 421.254C2237.26 444.436 2222.45 462.19 2203.5 474.517C2184.74 486.66 2163.5 492.731 2139.77 492.731ZM2122.66 441.4C2138.48 441.4 2152.64 437.26 2165.15 428.981C2177.66 420.702 2187.41 408.835 2194.4 393.381C2201.39 377.742 2204.88 359.344 2204.88 338.186C2204.88 317.028 2201.48 298.722 2194.67 283.267C2187.87 267.629 2178.21 255.67 2165.7 247.391C2153.2 239.112 2138.94 234.972 2122.94 234.972C2106.2 234.972 2091.67 239.296 2079.34 247.943C2067.2 256.59 2057.73 268.733 2050.92 284.371C2044.3 300.01 2040.99 318.04 2040.99 338.462C2040.99 359.252 2044.4 377.466 2051.2 393.105C2058.01 408.559 2067.48 420.518 2079.62 428.981C2091.94 437.26 2106.29 441.4 2122.66 441.4Z" fill="black"/>
<path d="M1822.93 492.731C1809.69 492.731 1796.9 490.799 1784.58 486.936C1772.25 483.072 1761.03 477.369 1750.92 469.825C1740.98 462.282 1732.52 452.991 1725.53 441.952H1724.98V593.461H1666.76V189.988H1724.98V234.144H1725.53C1731.97 223.841 1740.06 214.918 1749.81 207.375C1759.56 199.647 1770.51 193.76 1782.65 189.712C1794.97 185.481 1808.21 183.365 1822.38 183.365C1847.03 183.365 1868.73 189.712 1887.49 202.407C1906.44 215.102 1921.06 233.224 1931.36 256.774C1941.85 280.14 1947.09 307.369 1947.09 338.462C1947.09 370.475 1941.75 398.072 1931.09 421.254C1920.42 444.436 1905.61 462.19 1886.66 474.517C1867.9 486.66 1846.66 492.731 1822.93 492.731ZM1805.82 441.4C1821.64 441.4 1835.8 437.26 1848.31 428.981C1860.82 420.702 1870.57 408.835 1877.56 393.381C1884.55 377.742 1888.04 359.344 1888.04 338.186C1888.04 317.028 1884.64 298.722 1877.84 283.267C1871.03 267.629 1861.37 255.67 1848.86 247.391C1836.36 239.112 1822.1 234.972 1806.1 234.972C1789.36 234.972 1774.83 239.296 1762.5 247.943C1750.36 256.59 1740.89 268.733 1734.09 284.371C1727.46 300.01 1724.15 318.04 1724.15 338.462C1724.15 359.252 1727.56 377.466 1734.36 393.105C1741.17 408.559 1750.64 420.518 1762.78 428.981C1775.1 437.26 1789.45 441.4 1805.82 441.4Z" fill="black"/>
<path d="M1470.05 491.627C1450.92 491.627 1434.18 488.04 1419.83 480.864C1405.48 473.505 1394.54 463.294 1387 450.231C1379.46 436.985 1375.68 421.622 1375.68 404.144C1375.68 378.57 1383.78 358.884 1399.96 345.085C1416.15 331.103 1439.05 321.812 1468.67 317.212L1537.37 307.001C1544.54 306.081 1550.06 304.701 1553.92 302.861C1557.97 301.022 1560.82 298.63 1562.48 295.686C1564.32 292.558 1565.24 288.695 1565.24 284.095C1565.24 273.608 1562.66 264.501 1557.51 256.774C1552.54 248.863 1545.28 242.883 1535.71 238.836C1526.33 234.788 1515.11 232.764 1502.05 232.764C1489.73 232.764 1478.97 234.88 1469.77 239.112C1460.57 243.159 1453.31 249.139 1447.97 257.05C1442.64 264.777 1439.51 273.884 1438.59 284.371H1382.03C1383.69 263.581 1389.57 245.643 1399.69 230.556C1409.99 215.286 1423.88 203.603 1441.35 195.508C1458.83 187.413 1479.06 183.365 1502.05 183.365C1527.07 183.365 1548.59 187.505 1566.62 195.784C1584.64 203.879 1598.35 215.562 1607.73 230.832C1617.11 245.919 1621.8 263.673 1621.8 284.095V486.108H1565.24V442.78H1564.41C1555.95 458.234 1543.62 470.285 1527.44 478.932C1511.43 487.396 1492.3 491.627 1470.05 491.627ZM1485.77 444.16C1502.7 444.16 1517.14 440.02 1529.09 431.741C1541.05 423.462 1550.06 412.515 1556.13 398.9C1562.2 385.102 1565.24 370.199 1565.24 354.193V340.118C1562.66 342.142 1559.07 343.889 1554.48 345.361C1550.06 346.833 1544.63 348.121 1538.2 349.225L1475.84 358.884C1462.96 360.908 1452.66 365.323 1444.94 372.131C1437.21 378.754 1433.35 388.413 1433.35 401.108C1433.35 409.939 1435.37 417.574 1439.42 424.014C1443.65 430.453 1449.72 435.421 1457.63 438.916C1465.72 442.412 1475.1 444.16 1485.77 444.16Z" fill="black"/>
<path d="M1028.68 486.108V88.1542H1086.9V257.602H1273.97V88.1542H1332.46V486.108H1273.97V309.761H1086.9V486.108H1028.68Z" fill="black"/>
</svg>
